<svg xml:space="preserve" viewBox="0 0 100 100" y="0" x="0" xmlns="http://www.w3.org/2000/svg" id="圖層_1" version="1.1" style="height: 100%; width: 100%; background: rgb(255, 255, 255);" width="200px" height="200px"><g class="ldl-scale" style="transform-origin: 50% 50%; transform: rotate(0deg) scale(0.8, 0.8);"><g class="ldl-ani"><g class="ldl-layer"><g class="ldl-ani" style="transform: scale(0.91); transform-origin: 50px 50px; animation: 1.11111s linear -0.833333s infinite normal forwards running breath-ef0dcebb-7f72-4c86-8d15-2c97399dcbc7;"><circle fill="#333" r="40" cy="50" cx="50" style="fill: rgb(51, 51, 51);"></circle></g></g><g class="ldl-layer"><g class="ldl-ani" style="transform: scale(0.91); transform-origin: 50px 50px; animation: 1.11111s linear -1.11111s infinite normal forwards running breath-ef0dcebb-7f72-4c86-8d15-2c97399dcbc7;"><path fill="#fff" d="M52 68.5V55.6c0-1.1.7-2 1.7-2.4C60.2 50.8 65 42.1 65 31.6c0-1.6-.1-3.1-.3-4.6H35.3c-.2 1.5-.3 3-.3 4.6 0 10.5 4.8 19.2 11.4 21.6 1 .4 1.7 1.3 1.7 2.4v12.9c0 2-6.8 6.5-6.8 6.5h17.5S52 70.5 52 68.5zm-13.5-34h23.1C61 44 55.8 51 50 51s-11-7-11.5-16.5z" style="fill: rgb(255, 255, 255);"></path></g></g><metadata xmlns:d="https://loading.io/stock/"><d:name>tall glass</d:name><d:tags>tall glass,wine,drink,wine tasting,cup,decant,alcohol,liqueur,water</d:tags><d:license>by</d:license><d:slug>iu0zfe</d:slug></metadata></g></g></svg>
