<svg width="30" height="28" viewBox="0 0 30 28" fill="none" xmlns="http://www.w3.org/2000/svg">
<rect width="30" height="28" fill="#E86F6F"/>
<path d="M9 11.2C8.80109 11.2 8.61032 11.1262 8.46967 10.995C8.32902 10.8637 8.25 10.6856 8.25 10.5C8.25 10.3143 8.32902 10.1363 8.46967 10.005C8.61032 9.87374 8.80109 9.79999 9 9.79999H21C21.1989 9.79999 21.3897 9.87374 21.5303 10.005C21.671 10.1363 21.75 10.3143 21.75 10.5C21.75 10.6856 21.671 10.8637 21.5303 10.995C21.3897 11.1262 21.1989 11.2 21 11.2H9Z" fill="white"/>
<path fill-rule="evenodd" clip-rule="evenodd" d="M4.15051 7.95198L13.9005 17.752C14.0409 17.8932 14.211 18.0058 14.4002 18.0829C14.5894 18.1599 14.7936 18.1997 15 18.1997C15.2064 18.1997 15.4106 18.1599 15.5998 18.0829C15.789 18.0058 15.9591 17.8932 16.0995 17.752L25.8495 7.95198C26.7405 7.05598 26.0595 5.59998 24.75 5.59998H5.25001C3.94051 5.59998 3.25951 7.05598 4.15051 7.95198ZM21.3105 8.39998L15 14.742L8.68951 8.39998H21.3105Z" fill="white"/>
<path d="M16.5 16.1V25.9H13.5V16.1H16.5Z" fill="white"/>
<path d="M21.75 28H8.25C8.25 25.935 11.325 24.5 15 24.5C18.675 24.5 21.75 25.935 21.75 28ZM19.227 2.4192C18.9374 2.35162 18.6884 2.17943 18.5348 1.94051C18.3812 1.70159 18.3356 1.41551 18.408 1.1452C18.4804 0.874888 18.6649 0.642496 18.9209 0.499143C19.1769 0.35579 19.4834 0.31322 19.773 0.380797L25.773 1.7808C26.0626 1.84837 26.3116 2.02056 26.4652 2.25948C26.6188 2.49841 26.6644 2.78449 26.592 3.0548C26.5196 3.32511 26.3351 3.5575 26.0791 3.70085C25.8231 3.8442 25.5166 3.88677 25.227 3.8192L19.227 2.4192Z" fill="white"/>
<path d="M16.8165 12.2318C16.7713 12.3643 16.6984 12.4871 16.6019 12.5931C16.5054 12.699 16.3874 12.7861 16.2545 12.8491C16.1217 12.9121 15.9769 12.9499 15.8283 12.9603C15.6797 12.9706 15.5304 12.9533 15.389 12.9094C15.2477 12.8654 15.1171 12.7957 15.0048 12.7043C14.8926 12.6128 14.8009 12.5015 14.7351 12.3767C14.6694 12.252 14.6308 12.1162 14.6217 11.9774C14.6126 11.8386 14.6331 11.6995 14.682 11.5682L18.432 1.06819C18.4772 0.935689 18.5502 0.812887 18.6467 0.706916C18.7431 0.600944 18.8612 0.513913 18.994 0.450875C19.1268 0.387838 19.2717 0.350049 19.4203 0.339702C19.5689 0.329356 19.7182 0.346658 19.8595 0.390605C20.0009 0.434551 20.1315 0.504266 20.2437 0.595703C20.356 0.68714 20.4477 0.798477 20.5134 0.923251C20.5792 1.04803 20.6178 1.18375 20.6269 1.32255C20.636 1.46135 20.6155 1.60045 20.5665 1.73179L16.8165 12.2318Z" fill="white"/>
</svg>
